<svg xmlns="http://www.w3.org/2000/svg" width="44" height="44" viewBox="0 0 44 44">
    <g fill="none" fill-rule="evenodd" transform="translate(3.667 3.667)">
        <circle cx="18.333" cy="18.333" r="18.333" fill="#FFF"/>
        <path fill="#00B1E3" d="M19.407 18.192l5.308 5.307a.801.801 0 0 1 0 1.134l-.082.082a.801.801 0 0 1-1.134 0l-5.307-5.308-5.308 5.308a.801.801 0 0 1-1.133 0l-.082-.082a.801.801 0 0 1 0-1.134l5.308-5.307-5.308-5.308a.801.801 0 0 1 0-1.133l.082-.082a.801.801 0 0 1 1.133 0l5.308 5.308 5.307-5.308a.801.801 0 0 1 1.134 0l.082.082a.801.801 0 0 1 0 1.133l-5.308 5.308z"/>
    </g>
</svg>
