<svg xmlns="http://www.w3.org/2000/svg" width="100" height="100" viewBox="0 0 100 100">
    <g fill="#FFF" fill-rule="evenodd">
        <path d="M49.822 19.978c-2.83 0-5.134 2.317-5.134 5.166 0 2.85 2.304 5.168 5.134 5.168 2.83 0 5.135-2.318 5.135-5.168 0-2.849-2.304-5.166-5.135-5.166zm.234-8.482c-9.671 0-17.54 7.92-17.54 17.654 0 3.993 1.31 7.778 3.725 10.87a16.096 16.096 0 0 1 9.75-7.306 8.51 8.51 0 0 1-4.61-7.57c0-4.684 3.786-8.495 8.441-8.495 4.655 0 8.441 3.811 8.441 8.495a8.512 8.512 0 0 1-4.46 7.491 16.086 16.086 0 0 1 10.068 7.386c2.416-3.093 3.724-6.878 3.724-10.87 0-9.736-7.868-17.655-17.54-17.655zm12.83 34.366l-.932-2.29c-1.986-4.89-6.658-8.047-11.898-8.047-5.24 0-9.91 3.158-11.9 8.047l-.93 2.29-1.756-1.732c-4.037-3.984-6.26-9.304-6.26-14.98 0-11.569 9.351-20.982 20.846-20.982 11.494 0 20.846 9.413 20.846 20.982 0 5.676-2.223 10.996-6.26 14.98l-1.757 1.732z"/>
        <path d="M38.632 42.536a17.354 17.354 0 0 0 11.424 4.268c4.227 0 8.241-1.508 11.425-4.268-2.194-4.294-6.564-7.01-11.425-7.01-4.86 0-9.23 2.716-11.424 7.01m11.424 7.596c-5.482 0-10.662-2.131-14.586-6.002l-.794-.784.42-1.035c2.5-6.144 8.371-10.114 14.96-10.114s12.46 3.97 14.958 10.114l.422 1.035-.794.784c-3.924 3.871-9.104 6.002-14.586 6.002M12.93 59.91c-4.698 0-8.52 3.848-8.52 8.576v1.709c0 4.728 3.822 8.576 8.52 8.576h73.344c4.698 0 8.521-3.848 8.521-8.576v-1.709c0-4.728-3.823-8.576-8.521-8.576H12.93zm73.344 22.189H12.93c-6.522 0-11.829-5.34-11.829-11.904v-1.709c0-6.565 5.307-11.904 11.829-11.904h73.343c6.522 0 11.828 5.34 11.828 11.904v1.709c0 6.564-5.306 11.904-11.828 11.904z"/>
        <path d="M21.66 64.67l-.05 2.03 1.544-1.052.722 1.353-1.619 1.027 1.619 1.003-.722 1.351-1.544-1.052.05 2.006h-1.718l.05-2.006-1.57 1.052-.72-1.351 1.593-1.003L17.676 67l.722-1.353 1.594 1.052-.05-2.03zM30.025 64.67l-.05 2.03 1.544-1.052.722 1.353-1.618 1.027 1.618 1.003-.722 1.351-1.543-1.052.05 2.006h-1.718l.05-2.006-1.57 1.052-.72-1.351 1.592-1.003L26.042 67l.722-1.353 1.594 1.052-.05-2.03zM38.391 64.67l-.05 2.03 1.544-1.052.722 1.353-1.619 1.027 1.619 1.003-.722 1.351-1.544-1.052.05 2.006h-1.717l.05-2.006-1.57 1.052-.721-1.351 1.593-1.003L34.407 67l.722-1.353 1.594 1.052-.05-2.03zM46.757 64.67l-.048 2.03 1.542-1.052.723 1.353-1.62 1.027 1.62 1.003-.723 1.351-1.542-1.052.048 2.006H45.04l.05-2.006-1.57 1.052-.721-1.351 1.593-1.003L42.773 67l.724-1.353 1.592 1.052-.05-2.03zM55.123 64.67l-.05 2.03 1.544-1.052.722 1.353-1.618 1.027 1.618 1.003-.722 1.351-1.543-1.052.05 2.006h-1.718l.05-2.006-1.57 1.052-.721-1.351 1.593-1.003L51.14 67l.722-1.353 1.593 1.052-.05-2.03zM63.489 64.67l-.05 2.03 1.543-1.052.722 1.353-1.618 1.027 1.618 1.003-.722 1.351-1.543-1.052.05 2.006H61.77l.05-2.006-1.569 1.052-.722-1.351 1.593-1.003L59.505 67l.722-1.353 1.594 1.052-.05-2.03zM71.855 64.67l-.05 2.03 1.544-1.052.722 1.353-1.618 1.027 1.618 1.003-.722 1.351-1.543-1.052.05 2.006h-1.72l.052-2.006-1.57 1.052-.722-1.351 1.594-1.003L67.872 67l.722-1.353 1.594 1.052-.051-2.03zM80.22 64.67l-.049 2.03 1.543-1.052.722 1.353-1.618 1.027 1.618 1.003-.722 1.351-1.543-1.052.05 2.006h-1.718l.05-2.006-1.57 1.052-.72-1.351 1.592-1.003L76.237 67l.722-1.353 1.594 1.052-.05-2.03z"/>
    </g>
</svg>
