<svg xmlns="http://www.w3.org/2000/svg" xmlns:xlink="http://www.w3.org/1999/xlink" width="64" height="64" viewBox="0 0 64 64">
    <defs>
        <path id="a" d="M29.06 13.052l-11.784 6.703a3.532 3.532 0 0 0-1.792 3.058v13.405a3.53 3.53 0 0 0 1.792 3.059L29.06 45.98a3.627 3.627 0 0 0 1.793.47c.62 0 1.24-.156 1.792-.47l11.442-6.51a.831.831 0 0 0 .313-1.147.861.861 0 0 0-1.166-.308l-11.442 6.508c-.58.33-1.299.33-1.878 0L18.13 37.82a1.848 1.848 0 0 1-.941-1.603V22.813c0-.66.36-1.27.94-1.602l1.111-.631a.34.34 0 0 1 .51.293V34.18c0 1.018.557 1.967 1.453 2.475l8.198 4.664c.448.254.949.38 1.452.38.5 0 1.004-.126 1.451-.38l8.198-4.664a2.86 2.86 0 0 0 1.452-2.475v-9.326c0-1.021-.558-1.969-1.452-2.479l-8.198-4.662a2.955 2.955 0 0 0-2.903 0l-7.43 4.228c-.226.126-.511-.035-.511-.292v-2.14c0-.117.064-.229.17-.29l8.284-4.712a1.91 1.91 0 0 1 1.878 0l11.442 6.509a.86.86 0 0 0 1.166-.307.834.834 0 0 0-.313-1.15l-11.442-6.507a3.614 3.614 0 0 0-1.792-.471c-.62 0-1.242.156-1.793.47zm.15 19.997c1.379 0 2.5-1.102 2.5-2.461V19.9c0-.26.282-.421.51-.29l7.429 4.223c.368.21.599.6.599 1.021v9.326c0 .418-.23.808-.6 1.018l-8.197 4.664a1.216 1.216 0 0 1-1.194 0l-8.2-4.664c-.368-.21-.596-.6-.596-1.018v-9.326c0-.42.228-.811.596-1.021l7.43-4.223a.34.34 0 0 1 .513.29v10.688c0 .43-.355.78-.79.78h-.035c-.456 0-.853.339-.881.785a.846.846 0 0 0 .852.896h.063z"/>
    </defs>
    <g fill="none" fill-rule="evenodd" transform="translate(2 2)">
        <path fill="#29ABE2" fill-rule="nonzero" d="M59 30C59 13.984 46.016 1 30 1S1 13.984 1 30s12.984 29 29 29 29-12.984 29-29zm2 0c0 17.12-13.88 31-31 31C12.88 61-1 47.12-1 30-1 12.88 12.88-1 30-1c17.12 0 31 13.88 31 31z"/>
        <path fill="#319DCA" d="M34.111 33.278c-.847 1.17-2.289 1.869-3.856 1.869-.358 0-.713-.038-1.057-.11-.495-.105-.99.166-1.109.606-.116.439.192.876.685.98.484.1.98.151 1.481.151 2.199 0 4.219-.978 5.406-2.617.274-.38.15-.882-.278-1.126a1.021 1.021 0 0 0-.497-.128c-.304 0-.6.132-.775.375"/>
        <path fill="#319DCA" d="M29.061 13.052l-11.784 6.703a3.532 3.532 0 0 0-1.793 3.059v13.405c0 1.257.687 2.43 1.793 3.058l11.784 6.704a3.612 3.612 0 0 0 1.793.47c.62 0 1.24-.155 1.792-.47l11.443-6.508a.834.834 0 0 0 .313-1.15.862.862 0 0 0-1.167-.307l-11.442 6.509c-.579.33-1.298.33-1.879 0l-11.783-6.703a1.85 1.85 0 0 1-.94-1.603V22.814c0-.661.36-1.271.94-1.604l1.111-.63a.34.34 0 0 1 .51.293V34.18c0 1.02.557 1.968 1.453 2.476l8.197 4.664c.449.254.95.38 1.452.38.501 0 1.005-.126 1.452-.38l8.197-4.664a2.86 2.86 0 0 0 1.45-2.476v-9.325c0-1.022-.556-1.97-1.45-2.48l-8.197-4.661a2.957 2.957 0 0 0-2.904 0l-7.429 4.226c-.226.128-.511-.034-.511-.29v-2.14c0-.118.064-.23.17-.291l8.282-4.712c.58-.329 1.3-.329 1.88 0l11.441 6.51c.41.233.93.095 1.167-.308a.834.834 0 0 0-.313-1.15l-11.443-6.507a3.614 3.614 0 0 0-1.792-.471c-.621 0-1.241.156-1.793.47zm.149 19.998c1.38 0 2.5-1.103 2.5-2.463V19.9c0-.26.283-.421.51-.29l7.43 4.223c.366.21.598.602.598 1.022v9.325c0 .419-.232.81-.599 1.02l-8.197 4.663a1.216 1.216 0 0 1-1.194 0l-8.2-4.664c-.37-.21-.596-.6-.596-1.02v-9.324c0-.42.227-.812.596-1.022l7.43-4.222a.34.34 0 0 1 .512.29v10.686c0 .43-.355.782-.79.782h-.036c-.454 0-.851.337-.88.784a.846.846 0 0 0 .852.897h.064z"/>
        <path fill="#319DCA" d="M33.871 28.55a1.452 1.452 0 1 0 2.903-.003 1.452 1.452 0 0 0-2.903.003"/>
        <mask id="b" fill="#fff">
            <use xlink:href="#a"/>
        </mask>
        <path fill="#319DCA" d="M15.484 46.452h29.032V12.58H15.484z" mask="url(#b)"/>
    </g>
</svg>
