<svg xmlns="http://www.w3.org/2000/svg" width="100" height="100" viewBox="0 0 100 100">
    <g fill="none" fill-rule="evenodd">
        <g fill="#FFF">
            <path d="M82.018 12.211h-63.65c-2.51 0-4.546 2.05-4.546 4.576v51.862c0 2.527 2.035 4.576 4.545 4.576H54.74v-3.05H18.367a1.52 1.52 0 0 1-1.514-1.526V16.787a1.52 1.52 0 0 1 1.514-1.525h63.65a1.52 1.52 0 0 1 1.518 1.525v51.862c0 .843-.68 1.527-1.517 1.527h-3.03v3.05h3.03c2.51 0 4.547-2.05 4.547-4.577V16.787c0-2.526-2.036-4.576-4.547-4.576"/>
            <path d="M77.472 27.465c-3.348 0-6.062-2.731-6.062-6.102a1.52 1.52 0 0 0-1.515-1.525H30.492a1.52 1.52 0 0 0-1.515 1.525c0 3.37-2.714 6.102-6.063 6.102a1.52 1.52 0 0 0-1.516 1.525v27.456a1.52 1.52 0 0 0 1.516 1.526c3.349 0 6.063 2.732 6.063 6.102a1.52 1.52 0 0 0 1.515 1.525h19.701v-3.05H31.881c-.651-3.84-3.639-6.846-7.451-7.502V30.39c3.812-.657 6.8-3.662 7.451-7.501h36.624c.653 3.837 3.639 6.844 7.451 7.5v12.33h3.032V28.99a1.52 1.52 0 0 0-1.516-1.524"/>
            <path d="M66.864 68.65c-5.859 0-10.608-4.781-10.608-10.678 0-5.897 4.75-10.677 10.608-10.677 5.855.006 10.601 4.782 10.608 10.677 0 5.897-4.75 10.677-10.608 10.677m0-24.405c-7.533 0-13.64 6.146-13.64 13.728S59.33 71.7 66.863 71.7c7.528-.009 13.63-6.15 13.64-13.728 0-7.582-6.108-13.728-13.64-13.728"/>
            <path d="M72.925 67.124V80.73l-5.115-4.12a1.503 1.503 0 0 0-1.893 0L60.8 80.73V67.124H57.77v16.779c0 .347.118.683.333.953a1.506 1.506 0 0 0 2.13.237l6.63-5.337 6.63 5.337c.27.218.603.335.949.335a1.52 1.52 0 0 0 1.514-1.525v-16.78h-3.03zM36.554 33.566h27.279v-3.05h-27.28v3.05zm28.794-6.1h-30.31a1.52 1.52 0 0 0-1.516 1.524v6.102c0 .842.68 1.525 1.516 1.525h30.31a1.52 1.52 0 0 0 1.516-1.525V28.99a1.52 1.52 0 0 0-1.516-1.525zM32.007 44.244h3.03v-3.05h-3.03zM38.07 44.244h3.03v-3.05h-3.03zM32.007 50.346h18.186v-3.051H32.007zM66.864 62.548c-2.511 0-4.547-2.049-4.547-4.576 0-2.526 2.036-4.577 4.547-4.577 2.51 0 4.546 2.05 4.546 4.577s-2.035 4.576-4.546 4.576m0-12.203c-4.186 0-7.577 3.415-7.577 7.627s3.391 7.627 7.577 7.627c4.183-.005 7.572-3.417 7.577-7.627 0-4.212-3.393-7.627-7.577-7.627M21.398 65.6h3.032v-3.052h-3.032zM75.956 22.889h3.032v-3.051h-3.032zM21.398 22.889h3.032v-3.051h-3.032z"/>
        </g>
        <path d="M0 0h99.204v99.85H0z"/>
    </g>
</svg>
