<svg xmlns="http://www.w3.org/2000/svg" width="100" height="100" viewBox="0 0 100 100">
    <g fill="#FFF" fill-rule="evenodd">
        <path d="M83.846 77.571c0 .428-.104.831-.283 1.19a2.641 2.641 0 0 1-2.362 1.47H13.296a2.64 2.64 0 0 1-2.361-1.47 2.66 2.66 0 0 1-.284-1.19v-1.553h73.195v1.553zm-8.582-57.414a2.363 2.363 0 0 1 2.815 1.81l1.668 7.625H32.659l42.605-9.435zm7.721 9.72l-1.877-8.582a5.464 5.464 0 0 0-2.394-3.45 5.388 5.388 0 0 0-4.117-.737L18.224 29.592h-4.928c-3.17 0-5.745 2.593-5.745 5.78v25.05c0 .861.703 1.559 1.56 1.559a1.55 1.55 0 0 0 1.54-1.683V35.373a2.654 2.654 0 0 1 2.645-2.659h67.906a2.653 2.653 0 0 1 2.644 2.659v37.524H9.1c-.856 0-1.55.7-1.55 1.56v3.114c0 1.078.294 2.087.806 2.951l.027.045.008.014a5.743 5.743 0 0 0 4.904 2.771h67.906a5.734 5.734 0 0 0 4.763-2.55l.01-.016c.613-.92.973-2.026.973-3.215V35.373a5.792 5.792 0 0 0-3.963-5.495z"/>
        <path d="M37.61 57.259c-.856 0-1.55.698-1.55 1.56 0 .863.694 1.562 1.55 1.562h8.78c.856 0 1.551-.7 1.551-1.561 0-.863-.695-1.561-1.551-1.561h-8.78zM61.37 60.38c.857 0 1.553-.699 1.553-1.56 0-.863-.696-1.562-1.552-1.562h-8.779c-.855 0-1.55.699-1.55 1.562 0 .861.695 1.56 1.55 1.56h8.779zM76.353 57.259h-8.778c-.857 0-1.552.698-1.552 1.56 0 .863.695 1.562 1.552 1.562h8.778c.857 0 1.551-.7 1.551-1.561 0-.863-.694-1.561-1.55-1.561M46.892 65.85c0 .863.694 1.561 1.55 1.561h27.912c.855 0 1.55-.698 1.55-1.56 0-.861-.695-1.561-1.55-1.561H48.442c-.856 0-1.55.7-1.55 1.56M21.784 46.785l-1.431-2.494h2.864a1.55 1.55 0 0 0 1.342-.78l1.43-2.496 1.433 2.497c.276.482.787.78 1.342.78h2.863l-1.432 2.493a1.567 1.567 0 0 0 0 1.561l1.432 2.496h-2.863c-.555 0-1.066.297-1.342.781l-1.432 2.494-1.43-2.494a1.548 1.548 0 0 0-1.343-.78h-2.864l1.431-2.497a1.573 1.573 0 0 0 0-1.56m-5.46 6.398c.278.484.79.78 1.343.78h4.653l2.328 4.057c.276.481.788.78 1.343.78.553 0 1.065-.299 1.343-.78l2.325-4.056h4.654c.554 0 1.067-.297 1.343-.781a1.573 1.573 0 0 0 0-1.56l-2.327-4.057 2.327-4.055a1.575 1.575 0 0 0 0-1.562 1.55 1.55 0 0 0-1.343-.78h-4.654l-2.325-4.055a1.549 1.549 0 0 0-1.343-.782c-.555 0-1.067.298-1.343.782L22.32 41.17h-4.653c-.553 0-1.065.298-1.343.78a1.575 1.575 0 0 0 0 1.562l2.327 4.054-2.327 4.057a1.573 1.573 0 0 0 0 1.561M50.382 45.323h24.69v-4.754h-24.69v4.754zm27.792-6.317c0-.86-.694-1.56-1.55-1.56H48.833c-.857 0-1.55.7-1.55 1.56v7.878c0 .862.693 1.56 1.55 1.56h27.793c.855 0 1.55-.698 1.55-1.56v-7.878zM7.813 68.669a1.554 1.554 0 0 0 1.702.636 1.573 1.573 0 0 0 1.136-1.464c.036-1.392-1.713-2.127-2.67-1.117a1.583 1.583 0 0 0-.168 1.945"/>
    </g>
</svg>
