<svg xmlns="http://www.w3.org/2000/svg" xmlns:xlink="http://www.w3.org/1999/xlink" width="80" height="80" viewBox="0 0 80 80">
    <defs>
        <path id="a" d="M0 39.65c0 21.897 17.752 39.648 39.65 39.648 21.897 0 39.648-17.751 39.648-39.649C79.298 17.752 61.547 0 39.65 0 17.752 0 0 17.752 0 39.65"/>
        <linearGradient id="b" x1="50%" x2="50%" y1="-.885%" y2="77.881%">
            <stop offset="0%" stop-color="#009CFF"/>
            <stop offset="100%" stop-color="#00E29E"/>
        </linearGradient>
    </defs>
    <g fill="none" fill-rule="evenodd">
        <g>
            <mask id="c" fill="#fff">
                <use xlink:href="#a"/>
            </mask>
            <path fill="url(#b)" d="M0 39.65c0 21.897 17.752 39.648 39.65 39.648 21.897 0 39.648-17.751 39.648-39.649C79.298 17.752 61.547 0 39.65 0 17.752 0 0 17.752 0 39.65" mask="url(#c)"/>
        </g>
        <g fill="#FFF">
            <path d="M19.498 36.71a2.442 2.442 0 1 1 0 4.885 2.442 2.442 0 0 1 0-4.884M19.498 22.335a2.442 2.442 0 1 1 0 4.884 2.442 2.442 0 0 1 0-4.884M19.498 51.077a2.442 2.442 0 1 1 0 4.883 2.442 2.442 0 0 1 0-4.883M62.352 36.71a2.442 2.442 0 1 1-.002 4.884 2.442 2.442 0 0 1 .002-4.883M62.352 51.077a2.441 2.441 0 1 1-.002 4.883 2.441 2.441 0 0 1 .002-4.883M62.352 22.335a2.442 2.442 0 1 1-.002 4.883 2.442 2.442 0 0 1 .002-4.883"/>
            <path d="M19.498 40.672a1.518 1.518 0 1 1 0-3.039c.84 0 1.518.678 1.518 1.519 0 .842-.678 1.52-1.518 1.52m8.328-2.441H22.73a3.365 3.365 0 0 0-3.232-2.442 3.368 3.368 0 0 0-3.363 3.363 3.368 3.368 0 0 0 3.363 3.362 3.372 3.372 0 0 0 3.232-2.44h5.105a.925.925 0 0 0 .922-.922.939.939 0 0 0-.93-.921M17.969 24.777c0-.843.678-1.52 1.52-1.52.84 0 1.518.677 1.518 1.52 0 .84-.678 1.52-1.518 1.52-.842 0-1.52-.68-1.52-1.52m9.857 8.053h-5.584c-1 0-1.821-.821-1.821-1.823v-3a3.362 3.362 0 0 0 2.44-3.23 3.368 3.368 0 0 0-3.364-3.365 3.369 3.369 0 0 0-3.363 3.365 3.372 3.372 0 0 0 2.442 3.23v3a3.663 3.663 0 0 0 3.658 3.657h5.592a.925.925 0 0 0 .922-.922.917.917 0 0 0-.922-.912M21.016 53.518a1.518 1.518 0 1 1-3.039 0 1.52 1.52 0 1 1 3.04 0m6.81-9.888h-5.584a3.663 3.663 0 0 0-3.658 3.657v2.998a3.365 3.365 0 0 0-2.44 3.233 3.367 3.367 0 0 0 3.363 3.362 3.368 3.368 0 0 0 3.364-3.362 3.376 3.376 0 0 0-2.441-3.233v-2.998c0-1.003.82-1.823 1.822-1.823h5.594c.505 0 .92-.415.92-.922a.955.955 0 0 0-.94-.912M62.352 40.672c-.84 0-1.52-.678-1.52-1.52 0-.841.68-1.519 1.52-1.519s1.52.678 1.52 1.519c.01.842-.68 1.52-1.52 1.52m0-4.883a3.375 3.375 0 0 0-3.232 2.442h-5.106a.925.925 0 0 0-.922.92c0 .507.415.923.922.923h5.106a3.363 3.363 0 0 0 3.232 2.44 3.368 3.368 0 0 0 3.363-3.362 3.368 3.368 0 0 0-3.363-3.363M62.352 55.047c-.84 0-1.52-.678-1.52-1.52 0-.84.68-1.52 1.52-1.52s1.52.68 1.52 1.52c.01.833-.68 1.52-1.52 1.52m.922-4.762v-2.998a3.662 3.662 0 0 0-3.657-3.657h-5.593a.924.924 0 0 0-.921.922c0 .507.414.922.92.922h5.594c1.003 0 1.823.821 1.823 1.823v3a3.363 3.363 0 0 0-2.441 3.23 3.368 3.368 0 0 0 3.363 3.365 3.367 3.367 0 0 0 3.364-3.365 3.399 3.399 0 0 0-2.452-3.242M60.833 24.777c0-.843.678-1.52 1.52-1.52.84 0 1.518.677 1.518 1.52 0 .84-.678 1.52-1.518 1.52-.842 0-1.52-.68-1.52-1.52m-6.81 9.887h5.594a3.661 3.661 0 0 0 3.656-3.657v-3a3.362 3.362 0 0 0 2.443-3.23 3.369 3.369 0 0 0-3.363-3.365 3.368 3.368 0 0 0-3.365 3.365 3.372 3.372 0 0 0 2.443 3.23v3a1.83 1.83 0 0 1-1.825 1.823h-5.592a.925.925 0 0 0-.922.922c.01.497.426.912.93.912M39.505 43.268v1.87a1.465 1.465 0 0 0 2.929 0v-1.87a2.918 2.918 0 0 0 1.464-2.523 2.928 2.928 0 1 0-5.857 0c0 1.081.592 2.016 1.464 2.523zm-7.323 6.262h17.574V34.887H32.182V49.53zm2.931-21.964a5.857 5.857 0 1 1 11.714 0v4.392H35.113v-4.392zm14.643 4.392v-4.392a8.786 8.786 0 0 0-8.788-8.786 8.786 8.786 0 0 0-8.786 8.786v4.392a2.928 2.928 0 0 0-2.926 2.93V49.53c0 1.618 1.311 2.93 2.926 2.93h17.574a2.927 2.927 0 0 0 2.928-2.93V34.887c0-1.618-1.31-2.929-2.928-2.929z"/>
        </g>
    </g>
</svg>
