<svg xmlns="http://www.w3.org/2000/svg" width="80" height="80" viewBox="0 0 80 80">
    <defs>
        <linearGradient id="a" x1="50%" x2="50%" y1="-.885%" y2="77.881%">
            <stop offset="0%" stop-color="#009CFF"/>
            <stop offset="100%" stop-color="#00E29E"/>
        </linearGradient>
    </defs>
    <g fill="none" fill-rule="evenodd">
        <path fill="url(#a)" d="M0 40c0 22.091 17.909 40 40 40s40-17.909 40-40S62.091 0 40 0 0 17.909 0 40"/>
        <path fill="#FFF" d="M44.005 43.755l-4.053 2.64-4.054-2.64v-5.282l4.054-2.64 4.053 2.64z"/>
        <path stroke="#FFF" d="M40.627 27.632v2.807"/>
        <path stroke="#FFF" stroke-dasharray="2,2" d="M40.627 33.246v4.21"/>
        <path stroke="#FFF" d="M40.627 38.86v2.807M40.88 40.236l1.784 1.001"/>
        <path stroke="#FFF" stroke-dasharray="2.16700005531311,2.16700005531311" d="M45.24 42.682l3.864 2.167"/>
        <path stroke="#FFF" d="M50.392 45.572l1.783 1M39.339 40.236l-1.784 1.001"/>
        <path stroke="#FFF" stroke-dasharray="2.16700005531311,2.16700005531311" d="M34.98 42.682l-3.864 2.167"/>
        <path stroke="#FFF" d="M29.828 45.572l-1.783 1"/>
        <path fill="#FFF" d="M23.738 48.74V32.814c0-1.152.654-2.508 1.432-2.963l9.377-5.526V21.1l-10.706 6.309c-1.842 1.076-2.805 3.534-2.805 5.406v15.924c0 1.131.358 2.472 1.043 3.597l1.943-2.19a4.004 4.004 0 0 1-.284-1.407M54.63 52.384l-12.573 7.332c-.841.491-2.561.487-3.387.004l-10.544-6.265-2.654 1.656 11.864 7.051c.826.483 1.9.748 3.024.748 1.125 0 2.199-.265 3.023-.748l13.748-8.016c.66-.388 1.266-.973 1.762-1.66l-2.051 1.286-2.212-1.388zM60.22 32.815c0-2.028-1.345-4.403-3.061-5.408l-13.154-7.675v3.22l11.83 6.903c.88.515 1.682 1.925 1.682 2.96v9.515l2.702 1.696V32.815z"/>
        <path fill="#FFF" d="M61.57 52.732l-4.053 2.527-4.053-2.527v-5.056l4.053-2.528 4.053 2.528zM26.44 51.328l-4.053 2.528-4.054-2.528v-5.055l4.054-2.528 4.053 2.528zM44.005 23.258l-4.053 2.528-4.054-2.528v-5.055l4.054-2.528 4.053 2.528z"/>
    </g>
</svg>
