<svg xmlns="http://www.w3.org/2000/svg" xmlns:xlink="http://www.w3.org/1999/xlink" width="80" height="80" viewBox="0 0 80 80">
    <defs>
        <path id="a" d="M1.406 3.672a2.405 2.405 0 1 0 4.81.001 2.405 2.405 0 0 0-4.81 0"/>
        <linearGradient id="b" x1="49.98%" x2="49.98%" y1="-580.832%" y2="765.335%">
            <stop offset="0%" stop-color="#009CFF"/>
            <stop offset="100%" stop-color="#00E29E"/>
        </linearGradient>
        <path id="d" d="M10.535 1.088a7.943 7.943 0 0 1-6.712 3.676c-.623 0-1.24-.073-1.838-.214A1.605 1.605 0 0 0 .053 5.74a1.606 1.606 0 0 0 1.193 1.93c.842.2 1.708.299 2.577.299 3.827 0 7.343-1.924 9.41-5.15A1.607 1.607 0 0 0 12.748.6a1.647 1.647 0 0 0-.865-.25c-.528 0-1.046.261-1.349.738"/>
        <linearGradient id="e" x1="49.398%" x2="49.398%" y1="-510.978%" y2="349.99%">
            <stop offset="0%" stop-color="#009CFF"/>
            <stop offset="100%" stop-color="#00E29E"/>
        </linearGradient>
        <path id="g" d="M25.912 1.05L3.792 13.819a6.75 6.75 0 0 0-3.367 5.832v25.54a6.751 6.751 0 0 0 3.367 5.834l22.12 12.77a6.717 6.717 0 0 0 6.732 0l21.48-12.4a1.603 1.603 0 1 0-1.602-2.78l-21.48 12.406a3.519 3.519 0 0 1-3.524 0L5.394 48.248A3.532 3.532 0 0 1 3.63 45.19V19.651c0-1.259.674-2.424 1.765-3.055l2.084-1.2a.638.638 0 0 1 .96.554v25.357a5.464 5.464 0 0 0 2.726 4.72l15.39 8.883a5.428 5.428 0 0 0 2.726.732c.941 0 1.886-.244 2.724-.732l15.388-8.883a5.463 5.463 0 0 0 2.724-4.72v-17.77a5.463 5.463 0 0 0-2.724-4.72L32.004 9.933a5.469 5.469 0 0 0-5.45 0l-13.946 8.052a.641.641 0 0 1-.962-.556v-4.075c0-.224.124-.438.322-.552l15.55-8.981a3.556 3.556 0 0 1 3.524 0l21.48 12.408a1.604 1.604 0 0 0 1.602-2.779l-21.48-12.4a6.717 6.717 0 0 0-6.731 0zm.28 38.106a4.692 4.692 0 0 0 4.692-4.69v-20.37c0-.49.533-.797.96-.555l13.946 8.053c.69.4 1.122 1.147 1.122 1.943v17.77a2.27 2.27 0 0 1-1.122 1.946l-15.388 8.884c-.697.4-1.55.4-2.244 0l-15.39-8.884a2.262 2.262 0 0 1-1.122-1.946v-17.77a2.25 2.25 0 0 1 1.122-1.943l13.946-8.053a.644.644 0 0 1 .962.554v20.372c0 .817-.665 1.485-1.484 1.485h-.064c-.856 0-1.6.646-1.654 1.492a1.603 1.603 0 0 0 1.598 1.712h.12z"/>
        <linearGradient id="h" x1="49.896%" x2="49.896%" y1="-.224%" y2="99.382%">
            <stop offset="0%" stop-color="#009CFF"/>
            <stop offset="100%" stop-color="#00E29E"/>
        </linearGradient>
    </defs>
    <g fill="none" fill-rule="evenodd">
        <path fill="#161E3C" d="M80 62.098C80 71.979 71.983 80 62.098 80H17.902C8.017 80 0 71.98 0 62.098V17.906C0 8.015 8.017 0 17.902 0h44.196C71.983 0 80 8.015 80 17.906v44.192z"/>
        <g transform="translate(47.619 34.286)">
            <mask id="c" fill="#fff">
                <use xlink:href="#a"/>
            </mask>
            <path fill="url(#b)" d="M1.406 3.672a2.405 2.405 0 1 0 4.81.001 2.405 2.405 0 0 0-4.81 0" mask="url(#c)"/>
        </g>
        <g transform="translate(38.095 45.714)">
            <mask id="f" fill="#fff">
                <use xlink:href="#d"/>
            </mask>
            <path fill="url(#e)" d="M10.535 1.088a7.943 7.943 0 0 1-6.712 3.676c-.623 0-1.24-.073-1.838-.214A1.605 1.605 0 0 0 .053 5.74a1.606 1.606 0 0 0 1.193 1.93c.842.2 1.708.299 2.577.299 3.827 0 7.343-1.924 9.41-5.15A1.607 1.607 0 0 0 12.748.6a1.647 1.647 0 0 0-.865-.25c-.528 0-1.046.261-1.349.738" mask="url(#f)"/>
        </g>
        <g transform="translate(13.333 7.619)">
            <mask id="i" fill="#fff">
                <use xlink:href="#g"/>
            </mask>
            <path fill="url(#h)" d="M25.912 1.05L3.792 13.819a6.75 6.75 0 0 0-3.367 5.832v25.54a6.751 6.751 0 0 0 3.367 5.834l22.12 12.77a6.717 6.717 0 0 0 6.732 0l21.48-12.4a1.603 1.603 0 1 0-1.602-2.78l-21.48 12.406a3.519 3.519 0 0 1-3.524 0L5.394 48.248A3.532 3.532 0 0 1 3.63 45.19V19.651c0-1.259.674-2.424 1.765-3.055l2.084-1.2a.638.638 0 0 1 .96.554v25.357a5.464 5.464 0 0 0 2.726 4.72l15.39 8.883a5.428 5.428 0 0 0 2.726.732c.941 0 1.886-.244 2.724-.732l15.388-8.883a5.463 5.463 0 0 0 2.724-4.72v-17.77a5.463 5.463 0 0 0-2.724-4.72L32.004 9.933a5.469 5.469 0 0 0-5.45 0l-13.946 8.052a.641.641 0 0 1-.962-.556v-4.075c0-.224.124-.438.322-.552l15.55-8.981a3.556 3.556 0 0 1 3.524 0l21.48 12.408a1.604 1.604 0 0 0 1.602-2.779l-21.48-12.4a6.717 6.717 0 0 0-6.731 0zm.28 38.106a4.692 4.692 0 0 0 4.692-4.69v-20.37c0-.49.533-.797.96-.555l13.946 8.053c.69.4 1.122 1.147 1.122 1.943v17.77a2.27 2.27 0 0 1-1.122 1.946l-15.388 8.884c-.697.4-1.55.4-2.244 0l-15.39-8.884a2.262 2.262 0 0 1-1.122-1.946v-17.77a2.25 2.25 0 0 1 1.122-1.943l13.946-8.053a.644.644 0 0 1 .962.554v20.372c0 .817-.665 1.485-1.484 1.485h-.064c-.856 0-1.6.646-1.654 1.492a1.603 1.603 0 0 0 1.598 1.712h.12z" mask="url(#i)"/>
        </g>
    </g>
</svg>
