<svg xmlns="http://www.w3.org/2000/svg" width="64" height="64" viewBox="0 0 64 64">
    <g fill="none" fill-rule="evenodd">
        <path fill="#29ABE2" fill-rule="nonzero" d="M60.298 32c0-16.02-12.752-29-28.473-29C16.103 3 3.35 15.98 3.35 32s12.752 29 28.474 29c15.721 0 28.473-12.98 28.473-29zm2 0c0 17.117-13.64 31-30.473 31C14.99 63 1.35 49.117 1.35 32S14.991 1 31.825 1s30.473 13.883 30.473 31z"/>
        <path fill="#319DCA" d="M28.655 40.035a1.04 1.04 0 0 1-.815-.394c-.96-1.191-2.02-1.823-3.15-1.875-2.127-.093-3.938 1.775-3.955 1.794a1.043 1.043 0 0 1-1.488.017 1.083 1.083 0 0 1-.022-1.512c.1-.105 2.477-2.578 5.543-2.44 1.76.075 3.342.97 4.7 2.66a1.084 1.084 0 0 1-.147 1.508 1.038 1.038 0 0 1-.666.242M42.351 34.143h-9.474a1.062 1.062 0 0 1-1.052-1.072c0-.592.471-1.071 1.052-1.071h9.474c.581 0 1.053.479 1.053 1.071 0 .593-.472 1.072-1.053 1.072M38.14 39.5h-5.263a1.062 1.062 0 0 1-1.052-1.071c0-.593.471-1.072 1.052-1.072h5.264c.58 0 1.052.48 1.052 1.072 0 .592-.471 1.071-1.052 1.071M42.351 29.857h-9.474a1.062 1.062 0 0 1-1.052-1.071c0-.593.471-1.072 1.052-1.072h9.474c.581 0 1.053.48 1.053 1.072 0 .592-.472 1.071-1.053 1.071"/>
        <path fill="#319DCA" d="M24.3 28.376c-1.441 0-2.614 1.193-2.614 2.66 0 1.469 1.173 2.662 2.614 2.662 1.442 0 2.614-1.193 2.614-2.662 0-1.467-1.172-2.66-2.614-2.66m0 7.465c-2.603 0-4.72-2.155-4.72-4.805 0-2.648 2.117-4.803 4.72-4.803 2.603 0 4.72 2.155 4.72 4.803 0 2.65-2.117 4.805-4.72 4.805"/>
        <path fill="#319DCA" d="M45.158 25.361c0-1.067-.85-1.933-1.898-1.933H18.635c-1.049 0-1.898.866-1.898 1.933v15.421c0 1.067.85 1.932 1.898 1.932H43.26c1.048 0 1.898-.865 1.898-1.932v-15.42zm2.105 15.421c0 2.25-1.792 4.075-4.003 4.075H18.635c-2.21 0-4.003-1.825-4.003-4.075v-15.42c0-2.252 1.792-4.077 4.003-4.077H43.26c2.21 0 4.003 1.825 4.003 4.076v15.421z"/>
        <path fill="#FFF" d="M50.635 22.71c0 3.843-3.061 6.959-6.837 6.959-3.777 0-6.837-3.116-6.837-6.96 0-3.842 3.06-6.958 6.837-6.958 3.776 0 6.837 3.116 6.837 6.959"/>
        <path stroke="#319DCA" d="M50.635 22.71c0 3.843-3.061 6.959-6.837 6.959-3.777 0-6.837-3.116-6.837-6.96 0-3.842 3.06-6.958 6.837-6.958 3.776 0 6.837 3.116 6.837 6.959z"/>
        <path fill="#319DCA" d="M43.798 16.822c-3.19 0-5.784 2.641-5.784 5.888 0 3.246 2.594 5.887 5.784 5.887s5.784-2.64 5.784-5.887c0-3.247-2.595-5.888-5.784-5.888m0 13.918c-4.35 0-7.89-3.602-7.89-8.03 0-4.429 3.54-8.03 7.89-8.03s7.89 3.601 7.89 8.03c0 4.428-3.54 8.03-7.89 8.03"/>
        <path fill="#319DCA" d="M48.842 20.082l-5.66 5.764a.863.863 0 0 1-1.233 0l-2.83-2.882a.896.896 0 0 1 0-1.253.858.858 0 0 1 1.232 0l2.214 2.253 5.046-5.135a.862.862 0 0 1 1.231 0c.34.347.34.907 0 1.253"/>
    </g>
</svg>
