<svg xmlns="http://www.w3.org/2000/svg" width="64" height="64" viewBox="0 0 64 64">
    <g fill="none" fill-rule="evenodd">
        <path fill="#319DCA" d="M23.84 29.5h5.538V23.86H23.84V29.5zm6.461-7.518h-7.384a.932.932 0 0 0-.923.94v7.517c0 .517.413.939.923.939H30.3c.51 0 .923-.422.923-.94v-7.516a.932.932 0 0 0-.923-.94zM38.338 26.016a.923.923 0 0 0-.653-.275c-.243 0-.48.1-.652.275a.957.957 0 0 0-.27.664c0 .248.098.489.27.665.171.174.41.275.652.275.243 0 .48-.1.653-.275a.952.952 0 0 0 0-1.329"/>
        <path fill="#319DCA" d="M34.917 29.5h5.538V23.86h-5.538V29.5zm6.46-7.518h-7.383a.931.931 0 0 0-.923.94v7.517c0 .517.412.939.923.939h7.384c.51 0 .923-.422.923-.94v-7.516a.932.932 0 0 0-.923-.94zM27.262 37.29a.919.919 0 0 0-.653-.275c-.243 0-.481.1-.653.275a.955.955 0 0 0 0 1.329c.172.174.41.275.653.275.243 0 .48-.1.653-.275a.955.955 0 0 0 0-1.329"/>
        <path fill="#319DCA" d="M23.84 40.773h5.538v-5.638H23.84v5.638zm6.461-7.516h-7.384c-.51 0-.923.42-.923.94v7.514c0 .521.413.941.923.941H30.3c.51 0 .923-.42.923-.94v-7.516c0-.52-.413-.94-.923-.94zM38.3 37.015h-.614a.931.931 0 0 0-.923.94c0 .518.413.94.923.94h.615c.51 0 .923-.422.923-.94a.932.932 0 0 0-.923-.94M41.378 38.894c-.51 0-.924.42-.924.94v.94h-2.153c-.51 0-.923.42-.923.94 0 .518.413.939.923.939h3.077c.51 0 .923-.421.923-.94v-1.88c0-.519-.414-.939-.923-.939M33.993 37.015a.932.932 0 0 0-.923.94v1.252c0 .519.414.94.923.94.51 0 .923-.421.923-.94v-1.252a.932.932 0 0 0-.923-.94M38.3 33.257h-1.845a.932.932 0 0 0-.924.94c0 .518.414.939.924.939H38.3c.51 0 .923-.421.923-.94a.932.932 0 0 0-.923-.94M18.723 23.006c0 .736-.587 1.333-1.311 1.333s-1.31-.597-1.31-1.333V17.4c0-.737.586-1.335 1.31-1.335h5.506c.723 0 1.31.598 1.31 1.335s-.587 1.334-1.31 1.334h-4.195v4.27zM44.923 41.132c0-.736.586-1.334 1.311-1.334.723 0 1.31.598 1.31 1.334v5.604c0 .737-.587 1.336-1.31 1.336h-5.506c-.724 0-1.31-.6-1.31-1.336 0-.736.586-1.334 1.31-1.334h4.195v-4.27zM16.102 41.132v5.604c0 .737.586 1.336 1.31 1.336h5.506c.724 0 1.31-.6 1.31-1.336 0-.736-.586-1.334-1.31-1.334h-4.194v-4.27c0-.736-.588-1.334-1.312-1.334-.724 0-1.31.598-1.31 1.334M47.545 23.006V17.4c0-.737-.588-1.335-1.312-1.335h-5.505c-.724 0-1.312.598-1.312 1.335s.588 1.334 1.312 1.334h4.195v4.27c0 .737.586 1.334 1.31 1.334.724 0 1.312-.597 1.312-1.333"/>
        <path stroke="#319DCA" stroke-width="2" d="M14.632 35.214h34.736"/>
        <path fill="#319DCA" d="M27.262 26.016a.922.922 0 0 0-.653-.275c-.243 0-.481.1-.653.275a.955.955 0 0 0 0 1.329c.172.174.41.275.653.275.243 0 .48-.1.653-.275a.957.957 0 0 0 .27-.665.957.957 0 0 0-.27-.664"/>
        <path fill="#29ABE2" fill-rule="nonzero" d="M60.649 32c0-16.02-12.752-29-28.474-29C16.454 3 3.702 15.98 3.702 32s12.752 29 28.473 29C47.897 61 60.65 48.02 60.65 32zm2 0c0 17.117-13.64 31-30.474 31S1.702 49.117 1.702 32 15.342 1 32.175 1C49.01 1 62.65 14.883 62.65 32z"/>
    </g>
</svg>
