<svg xmlns="http://www.w3.org/2000/svg" xmlns:xlink="http://www.w3.org/1999/xlink" width="80" height="80" viewBox="0 0 80 80">
    <defs>
        <linearGradient id="a" x1="50%" x2="50%" y1="-.885%" y2="77.881%">
            <stop offset="0%" stop-color="#009CFF"/>
            <stop offset="100%" stop-color="#00E29E"/>
        </linearGradient>
        <path id="b" d="M1.387 2.442A1.714 1.714 0 1 0 3.099.727c-.946 0-1.712.768-1.712 1.715z"/>
        <path id="d" d="M24.515 28.614c.221-.352.599-.544.984-.544.215 0 .433.061.63.185.543.355.7 1.084.353 1.632-1.506 2.38-4.071 3.797-6.861 3.797a8.086 8.086 0 0 1-1.879-.219 1.184 1.184 0 0 1-.869-1.42 1.17 1.17 0 0 1 1.408-.88c.435.106.887.16 1.34.16a5.779 5.779 0 0 0 4.894-2.71z"/>
    </defs>
    <g fill="none" fill-rule="evenodd">
        <path fill="url(#a)" d="M0 39.65c0 21.897 17.752 39.648 39.65 39.648 21.897 0 39.648-17.751 39.648-39.649C79.298 17.752 61.547 0 39.65 0 17.752 0 0 17.752 0 39.65"/>
        <g transform="translate(43.509 37.895)">
            <mask id="c" fill="#fff">
                <use xlink:href="#b"/>
            </mask>
            <path fill="#FFF" d="M1.387 4.154h3.427V.727H1.387z" mask="url(#c)"/>
        </g>
        <g transform="translate(19.65 18.246)">
            <path fill="#FFF" d="M18.378.646L2.428 9.81A4.838 4.838 0 0 0 0 13.994v18.33c0 1.718.929 3.322 2.427 4.182l15.95 9.164a4.858 4.858 0 0 0 2.428.646c.84 0 1.677-.215 2.426-.646l15.489-8.896c.554-.32.742-1.023.423-1.571a1.158 1.158 0 0 0-1.58-.423l-15.487 8.9c-.784.45-1.757.45-2.542 0l-15.95-9.164a2.533 2.533 0 0 1-1.273-2.192v-18.33a2.53 2.53 0 0 1 1.272-2.191l1.504-.864a.46.46 0 0 1 .69.4V29.535c0 1.392.755 2.69 1.966 3.385l11.096 6.376c.607.349 1.284.523 1.966.523.679 0 1.36-.174 1.965-.523l11.097-6.376a3.917 3.917 0 0 0 1.962-3.385V16.784a3.918 3.918 0 0 0-1.962-3.388L22.77 7.02a3.965 3.965 0 0 0-3.93 0L8.783 12.8a.463.463 0 0 1-.693-.4V9.479c0-.164.088-.317.23-.397l11.213-6.445a2.572 2.572 0 0 1 2.542 0l15.488 8.9c.553.32 1.26.13 1.579-.421.32-.549.13-1.253-.423-1.57L23.23.644A4.857 4.857 0 0 0 20.806 0c-.84 0-1.68.215-2.427.646zm.201 27.344a3.376 3.376 0 0 0 3.383-3.365V10.009a.46.46 0 0 1 .692-.397l10.057 5.777c.497.287.81.82.81 1.395v12.751c0 .572-.313 1.107-.81 1.394l-11.097 6.375a1.628 1.628 0 0 1-1.617 0L8.899 30.93a1.614 1.614 0 0 1-.808-1.394V16.784c0-.574.31-1.108.808-1.395l10.057-5.777a.461.461 0 0 1 .693.397v14.616a1.07 1.07 0 0 1-1.07 1.066h-.046c-.617 0-1.155.462-1.192 1.072-.045.67.49 1.227 1.152 1.227h.086z"/>
            <mask id="e" fill="#fff">
                <use xlink:href="#d"/>
            </mask>
            <path fill="#FFF" d="M.118 46.571h38.998V.577H.118z" mask="url(#e)"/>
        </g>
    </g>
</svg>
