<svg xmlns="http://www.w3.org/2000/svg" width="64" height="64" viewBox="0 0 64 64">
    <g fill="none" fill-rule="evenodd">
        <path fill="#29ABE2" fill-rule="nonzero" d="M61 32C61 15.984 48.016 3 32 3S3 15.984 3 32s12.984 29 29 29 29-12.984 29-29zm2 0c0 17.12-13.88 31-31 31C14.88 63 1 49.12 1 32 1 14.88 14.88 1 32 1c17.12 0 31 13.88 31 31z"/>
        <path fill="#319DCA" d="M20.241 42.63h23.182a4.671 4.671 0 0 1 3.456-3.457V28.117a4.67 4.67 0 0 1-3.456-3.455H20.24a4.668 4.668 0 0 1-3.456 3.455v11.056a4.67 4.67 0 0 1 3.456 3.458zm25.2 2.143H18.223v-1.071a2.513 2.513 0 0 0-2.51-2.51h-1.07V26.098h1.07a2.512 2.512 0 0 0 2.51-2.508V22.52H45.44v1.071a2.512 2.512 0 0 0 2.51 2.508h1.071v15.094h-1.071a2.513 2.513 0 0 0-2.51 2.51v1.071z"/>
        <path fill="#319DCA" d="M22.853 27.714c-.864 0-1.567.703-1.567 1.568v8.65c0 .865.703 1.568 1.567 1.568h17.223a1.57 1.57 0 0 0 1.567-1.568v-8.65a1.57 1.57 0 0 0-1.567-1.568H22.853zm17.223 12.857H22.853a2.64 2.64 0 0 1-2.638-2.639v-8.65a2.64 2.64 0 0 1 2.638-2.64h17.223a2.641 2.641 0 0 1 2.639 2.64v8.65a2.641 2.641 0 0 1-2.64 2.64z"/>
        <path fill="#319DCA" d="M40.634 13.654c-5.17 0-9.375 4.206-9.375 9.375s4.206 9.375 9.375 9.375c5.17 0 9.375-4.207 9.375-9.375 0-5.169-4.205-9.375-9.375-9.375"/>
        <path fill="#FFF" d="M40.634 30.854c-2.15 0-4.1-.87-5.514-2.278a7.872 7.872 0 0 1-1.42-1.923 7.776 7.776 0 0 1-.892-3.624c0-4.314 3.51-7.825 7.826-7.825 2.047 0 3.912.79 5.308 2.08a7.793 7.793 0 0 1 2.518 5.744c0 4.315-3.51 7.826-7.826 7.826"/>
        <path stroke="#319DCA" d="M40.634 30.854c-2.15 0-4.1-.87-5.514-2.278a7.872 7.872 0 0 1-1.42-1.923 7.776 7.776 0 0 1-.892-3.624c0-4.314 3.51-7.825 7.826-7.825 2.047 0 3.912.79 5.308 2.08a7.793 7.793 0 0 1 2.518 5.744c0 4.315-3.51 7.826-7.826 7.826z"/>
        <path fill="#319DCA" d="M37.573 19.924a1.014 1.014 0 1 1-.002 2.029 1.014 1.014 0 0 1 .002-2.029M43.844 19.924a1.014 1.014 0 1 1-.001 2.029 1.014 1.014 0 0 1 0-2.029M40.616 28.223c1.961 0 3.84-1.003 4.916-2.667l-.852-.55a4.852 4.852 0 0 1-4.604 2.172 4.859 4.859 0 0 1-3.488-2.173l-.852.551a5.89 5.89 0 0 0 4.224 2.63c.22.024.438.037.656.037"/>
    </g>
</svg>
