<svg xmlns="http://www.w3.org/2000/svg" width="80" height="80" viewBox="0 0 80 80">
    <defs>
        <linearGradient id="a" x1="49.999%" x2="49.999%" y1="-.885%" y2="77.881%">
            <stop offset="0%" stop-color="#009CFF"/>
            <stop offset="100%" stop-color="#00E29E"/>
        </linearGradient>
    </defs>
    <g fill="none" fill-rule="evenodd">
        <path fill="url(#a)" d="M0 39.65c0 21.897 17.75 39.648 39.65 39.648 21.895 0 39.648-17.751 39.648-39.649C79.298 17.752 61.545 0 39.65 0 17.75 0 0 17.752 0 39.65"/>
        <path fill="#FFF" d="M25.793 40c2.125-2.375 4.265-4.195 6.367-5.417l.362-.203a8.452 8.452 0 0 0-2.083 4.712h-2.102v1.815h2.102c.192 1.799.948 3.43 2.083 4.713l-.362-.205c-2.102-1.22-4.242-3.042-6.367-5.414zm26.072 0c-2.125 2.373-4.265 4.193-6.368 5.415-.12.068-.24.138-.36.202a8.452 8.452 0 0 0 2.083-4.71h2.1v-1.815h-2.1a8.46 8.46 0 0 0-2.083-4.712l.36.203c2.103 1.222 4.243 3.04 6.368 5.418zm-13.94.907v5.683a6.656 6.656 0 0 1-5.662-5.683h5.662zm0-7.494v5.679h-5.662c.402-2.942 2.728-5.278 5.662-5.679zm1.81 5.679v-5.679c2.933.4 5.259 2.737 5.66 5.679h-5.66zm0 7.498v-5.683h5.66a6.656 6.656 0 0 1-5.66 5.683zm6.668.396c2.45-1.42 4.925-3.572 7.353-6.394l.512-.593-.512-.592c-2.428-2.821-4.904-4.972-7.353-6.393-2.203-1.282-4.443-2.004-6.669-2.16v-1.38h-1.81v1.38c-2.227.155-4.465.878-6.67 2.16-2.45 1.42-4.923 3.572-7.351 6.393L23.39 40l.512.591c2.428 2.822 4.901 4.973 7.352 6.394 2.202 1.28 4.442 2.004 6.67 2.159v1.381h1.81v-1.381c2.225-.155 4.464-.879 6.668-2.159z"/>
        <path stroke="#FFF" stroke-width="2" d="M58.479 47.48c0 1.486-1.148 3.298-2.493 4.027l-14.28 7.72c-1.345.73-3.56.728-4.905 0l-14.014-7.72c-1.344-.729-2.203-2.541-2.203-4.028V32.145c0-1.487.852-3.3 2.198-4.03l14.132-7.719c1.344-.728 3.486-.728 4.83 0l14.273 7.72c1.344.73 2.462 2.542 2.462 4.029v15.334z"/>
    </g>
</svg>
