<svg xmlns="http://www.w3.org/2000/svg" width="100" height="100" viewBox="0 0 100 100">
    <g fill="#FFF" fill-rule="evenodd">
        <path d="M42.38 71.166c-6.485-2.302-11.595-7.444-13.881-13.974h7.458c3.542 0 6.424 2.902 6.424 6.466v7.508zm-6.423-17.028H27.66a23.142 23.142 0 0 1-.371-2.598 1.52 1.52 0 0 0-1.643-1.39 1.523 1.523 0 0 0-1.382 1.65 26.274 26.274 0 0 0 .719 4.249c2.34 9.153 9.444 16.3 18.537 18.655a1.498 1.498 0 0 0 1.308-.273c.371-.287.587-.734.587-1.206v-9.567c0-5.25-4.243-9.52-9.46-9.52z"/>
        <path d="M49.97 81.633c-17.573 0-31.87-14.39-31.87-32.077 0-17.687 14.297-32.078 31.87-32.078 17.572 0 31.87 14.39 31.87 32.078 0 17.686-14.298 32.077-31.87 32.077m24.681-56.92c-6.592-6.634-15.359-10.29-24.682-10.29-9.323 0-18.09 3.656-24.682 10.29-6.593 6.636-10.223 15.458-10.223 24.843s3.63 18.207 10.223 24.842c6.594 6.635 15.36 10.29 24.682 10.29 9.323 0 18.09-3.655 24.682-10.29 6.593-6.635 10.224-15.457 10.224-24.842 0-9.385-3.631-18.207-10.224-24.843"/>
        <path d="M57.558 71.166v-7.508c0-3.564 2.88-6.466 6.424-6.466h7.458c-2.287 6.53-7.397 11.672-13.882 13.974m17.128-16.437a1.517 1.517 0 0 0-1.2-.59h-9.504c-5.216 0-9.459 4.27-9.459 9.52v9.566a1.525 1.525 0 0 0 1.518 1.527c.125 0 .252-.015.377-.048 9.094-2.357 16.198-9.506 18.538-18.658a1.539 1.539 0 0 0-.27-1.317M49.97 52.61c-1.675 0-3.036-1.37-3.036-3.055 0-1.684 1.36-3.055 3.035-3.055s3.036 1.371 3.036 3.055c0 1.686-1.361 3.056-3.036 3.056m0-9.166c-3.347 0-6.071 2.741-6.071 6.11 0 3.37 2.724 6.11 6.071 6.11 3.348 0 6.071-2.74 6.071-6.11 0-3.369-2.723-6.11-6.07-6.11M26.064 44.985a1.52 1.52 0 0 0-1.696 1.325l-.017.149a1.526 1.526 0 0 0 1.509 1.706c.758 0 1.414-.571 1.505-1.347l.016-.128a1.527 1.527 0 0 0-1.317-1.705"/>
        <path d="M49.97 38.863c-7.599 0-15.191.758-20.869 1.514 3.586-8.307 11.69-13.736 20.868-13.736 9.179 0 17.283 5.429 20.868 13.736-5.677-.756-13.269-1.514-20.868-1.514m24.624 2.925c0-.006-.002-.008-.004-.013a26.197 26.197 0 0 0-9.202-13.042 25.479 25.479 0 0 0-15.418-5.146 25.486 25.486 0 0 0-15.417 5.146 26.19 26.19 0 0 0-9.206 13.053c-.156.5-.046 1.048.293 1.446.338.4.857.598 1.373.522 5.721-.837 14.347-1.835 22.957-1.835 8.138 0 16.29.891 21.99 1.696.514 1.928.774 3.92.774 5.94 0 .844.68 1.528 1.518 1.528s1.518-.684 1.518-1.527c0-2.65-.396-5.262-1.176-7.768"/>
    </g>
</svg>
