<svg xmlns="http://www.w3.org/2000/svg" width="100" height="100" viewBox="0 0 100 100">
    <g fill="none" fill-rule="evenodd">
        <path fill="#FFF" d="M64.646 75.373c0-.9-.726-1.634-1.623-1.634-.895 0-1.62.733-1.62 1.634v3.268c0 .901.725 1.633 1.62 1.633.897 0 1.623-.732 1.623-1.633v-3.268zM71.14 55.766c0-.901-.727-1.633-1.623-1.633a1.63 1.63 0 0 0-1.624 1.633v3.268a1.63 1.63 0 0 0 1.624 1.634c.896 0 1.623-.73 1.623-1.634v-3.268zM64.646 65.571a1.63 1.63 0 0 0-1.623-1.635c-.895 0-1.62.733-1.62 1.635v3.266c0 .903.725 1.634 1.62 1.634.897 0 1.623-.73 1.623-1.634v-3.266zM71.14 65.571a1.63 1.63 0 0 0-1.623-1.635c-.896 0-1.624.733-1.624 1.635v3.266a1.63 1.63 0 0 0 1.624 1.634c.896 0 1.623-.73 1.623-1.634v-3.266zM58.154 55.766c0-.901-.727-1.633-1.623-1.633a1.63 1.63 0 0 0-1.623 1.633v3.268c0 .903.728 1.634 1.623 1.634.896 0 1.623-.73 1.623-1.634v-3.268zM64.646 55.766c0-.901-.726-1.633-1.623-1.633-.895 0-1.62.732-1.62 1.633v3.268c0 .903.725 1.634 1.62 1.634.897 0 1.623-.73 1.623-1.634v-3.268zM71.14 39.429V36.16c0-.903-.727-1.634-1.623-1.634a1.63 1.63 0 0 0-1.624 1.634v3.268c0 .9.728 1.633 1.624 1.633a1.63 1.63 0 0 0 1.623-1.633M58.154 65.571a1.63 1.63 0 0 0-1.623-1.635 1.63 1.63 0 0 0-1.623 1.635v3.266c0 .903.728 1.634 1.623 1.634.896 0 1.623-.73 1.623-1.634v-3.266zM77.633 36.161c0-.902-.726-1.634-1.621-1.634a1.63 1.63 0 0 0-1.625 1.634v3.267c0 .902.727 1.633 1.625 1.633.895 0 1.621-.73 1.621-1.633v-3.267zM56.53 73.74a1.63 1.63 0 0 0-1.622 1.633v3.269c0 .9.728 1.633 1.623 1.633a1.63 1.63 0 0 0 1.623-1.633v-3.269a1.63 1.63 0 0 0-1.623-1.634M88.996 73.74a1.63 1.63 0 0 0-1.622 1.633v3.269c0 .9.727 1.633 1.622 1.633a1.63 1.63 0 0 0 1.623-1.633v-3.269c0-.902-.726-1.634-1.623-1.634"/>
        <path fill="#FFF" d="M63.023 41.061c.897 0 1.624-.73 1.624-1.633v-6.894L80.88 28.45v27.316c0 .681.419 1.291 1.053 1.531l11.932 4.504v16.84c0 .901.728 1.634 1.623 1.634.898 0 1.624-.733 1.624-1.633V60.669c0-.682-.421-1.292-1.054-1.531l-11.932-4.505V23.09a1.63 1.63 0 0 0-1.623-1.634 1.63 1.63 0 0 0-1.623 1.634v1.992L62.63 29.674a1.627 1.627 0 0 0-1.228 1.584v8.17c0 .902.726 1.633 1.621 1.633"/>
        <path fill="#FFF" d="M90.62 65.571a1.63 1.63 0 0 0-1.623-1.635 1.63 1.63 0 0 0-1.623 1.635v3.266c0 .903.727 1.634 1.623 1.634s1.622-.73 1.622-1.634v-3.266zM84.128 65.571c0-.902-.729-1.635-1.625-1.635a1.63 1.63 0 0 0-1.621 1.635v3.266c0 .903.726 1.634 1.621 1.634a1.63 1.63 0 0 0 1.625-1.634v-3.266zM84.128 75.373c0-.9-.729-1.634-1.625-1.634a1.63 1.63 0 0 0-1.621 1.634v3.268c0 .901.726 1.633 1.621 1.633a1.63 1.63 0 0 0 1.625-1.633v-3.268zM71.14 75.373c0-.9-.727-1.634-1.623-1.634s-1.624.733-1.624 1.634v3.268c0 .901.728 1.633 1.624 1.633a1.63 1.63 0 0 0 1.623-1.633v-3.268z"/>
        <path fill="#FFF" d="M76.011 81.397c.895 0 1.622-.731 1.622-1.634v-30.53c0-.752-.508-1.405-1.228-1.587L50.432 41.11c-.482-.122-1-.011-1.393.298a1.633 1.633 0 0 0-.626 1.287v35.947c0 .9.728 1.632 1.623 1.632.899 0 1.624-.732 1.624-1.632V44.79l22.727 5.719v29.255a1.63 1.63 0 0 0 1.624 1.634M38.675 45.964a1.63 1.63 0 0 0-1.625-1.635 1.63 1.63 0 0 0-1.621 1.635v3.268c0 .9.726 1.632 1.621 1.632a1.63 1.63 0 0 0 1.625-1.632v-3.268zM38.675 36.161a1.63 1.63 0 0 0-1.625-1.634c-.895 0-1.621.732-1.621 1.634v3.267c0 .902.726 1.633 1.621 1.633.897 0 1.625-.73 1.625-1.633v-3.267zM38.675 26.357a1.63 1.63 0 0 0-1.625-1.634c-.895 0-1.621.732-1.621 1.634v3.267c0 .903.726 1.634 1.621 1.634a1.63 1.63 0 0 0 1.625-1.634v-3.267zM38.675 75.373c0-.9-.728-1.634-1.625-1.634a1.63 1.63 0 0 0-1.621 1.634v3.268c0 .901.726 1.633 1.621 1.633a1.63 1.63 0 0 0 1.625-1.633v-3.268zM45.167 55.766c0-.901-.728-1.633-1.622-1.633-.898 0-1.623.732-1.623 1.633v3.268c0 .903.725 1.634 1.623 1.634a1.63 1.63 0 0 0 1.622-1.634v-3.268zM45.167 45.964c0-.902-.728-1.635-1.622-1.635-.898 0-1.623.733-1.623 1.635v3.268c0 .9.725 1.632 1.623 1.632a1.63 1.63 0 0 0 1.622-1.632v-3.268zM45.167 65.571c0-.902-.728-1.635-1.622-1.635-.898 0-1.623.733-1.623 1.635v3.266c0 .903.725 1.634 1.623 1.634a1.63 1.63 0 0 0 1.622-1.634v-3.266zM43.544 73.74a1.63 1.63 0 0 0-1.624 1.633v3.269c0 .9.728 1.633 1.624 1.633a1.63 1.63 0 0 0 1.623-1.633v-3.269a1.63 1.63 0 0 0-1.623-1.634M45.167 36.161a1.63 1.63 0 0 0-1.622-1.634c-.898 0-1.623.732-1.623 1.634v3.267c0 .902.725 1.633 1.623 1.633a1.63 1.63 0 0 0 1.622-1.633v-3.267z"/>
        <path fill="#FFF" d="M24.064 42.06a1.63 1.63 0 0 0 1.624-1.635v.012l5.595-2.813c.55-.28.898-.844.898-1.463V22.466L40.3 18.38l8.114 4.087v13.695c0 .901.728 1.632 1.623 1.632.898 0 1.625-.73 1.625-1.632V21.456c0-.62-.348-1.186-.898-1.463l-8.843-4.448v-2.26c0-.901-.726-1.632-1.621-1.632-.897 0-1.624.73-1.624 1.633v2.259l-8.844 4.448c-.55.277-.896.844-.896 1.463V35.15l-5.596 2.814c-.55.279-.9.844-.9 1.463v.997a1.63 1.63 0 0 0 1.625 1.635M38.675 65.571a1.63 1.63 0 0 0-1.625-1.635 1.63 1.63 0 0 0-1.621 1.635v3.266c0 .903.726 1.634 1.621 1.634a1.63 1.63 0 0 0 1.625-1.634v-3.266z"/>
        <path fill="#FFF" d="M45.167 26.357a1.63 1.63 0 0 0-1.622-1.634c-.898 0-1.623.732-1.623 1.634v3.267c0 .903.725 1.634 1.623 1.634a1.63 1.63 0 0 0 1.622-1.634v-3.267zM38.675 55.766c0-.901-.728-1.633-1.625-1.633-.895 0-1.621.732-1.621 1.633v3.268c0 .903.726 1.634 1.621 1.634a1.63 1.63 0 0 0 1.625-1.634v-3.268zM30.114 60.105c-.391 1.065-1.031 2.12-1.9 3.132a.048.048 0 0 0-.007.008l-11 13.006L6.198 63.236c-.867-1.012-1.506-2.065-1.902-3.14-1.583-4.217-.982-8.986 1.608-12.76 2.6-3.787 6.718-5.958 11.303-5.958 4.583 0 8.703 2.17 11.301 5.957 2.593 3.775 3.194 8.544 1.606 12.77m.764-14.418c-3.145-4.581-8.128-7.208-13.671-7.208-5.545 0-10.527 2.627-13.672 7.208C.405 50.243-.316 56.013 1.6 61.11c.512 1.392 1.326 2.745 2.414 4.011L16.11 79.425a1.435 1.435 0 0 0 2.193 0l12.095-14.299c1.092-1.274 1.905-2.626 2.412-4.006 1.92-5.107 1.198-10.877-1.932-15.433"/>
        <path fill="#FFF" d="M17.207 60.415c-2.86 0-5.185-2.341-5.185-5.219 0-2.877 2.326-5.218 5.185-5.218 2.858 0 5.185 2.341 5.185 5.218 0 2.878-2.327 5.219-5.185 5.219m0-13.337c-4.447 0-8.065 3.643-8.065 8.118 0 4.477 3.617 8.118 8.065 8.118 4.448 0 8.065-3.641 8.065-8.118 0-4.475-3.619-8.118-8.065-8.118"/>
        <path d="M-1 0h99.204v99.85H-1z"/>
    </g>
</svg>
