<svg xmlns="http://www.w3.org/2000/svg" width="100" height="100" viewBox="0 0 100 100">
    <g fill="none" fill-rule="evenodd">
        <path fill="#FFF" d="M36.394 50.543h3.841v-9.892h-3.841v9.892zm4.964 2.26c.62 0 1.122-.507 1.122-1.13V39.52c0-.624-.502-1.13-1.122-1.13h-6.086c-.62 0-1.123.506-1.123 1.13v12.151c0 .624.503 1.13 1.123 1.13h6.086zM47.969 50.543h3.84v-9.892h-3.84v9.892zm-1.123 2.26h6.086c.618 0 1.123-.507 1.123-1.13V39.52c0-.624-.505-1.13-1.123-1.13h-6.086c-.62 0-1.123.506-1.123 1.13v12.151c0 .624.503 1.13 1.123 1.13zM20.815 68.037h3.842v-9.891h-3.842v9.89zm4.965 2.259c.62 0 1.122-.505 1.122-1.129v-12.15c0-.625-.503-1.13-1.122-1.13h-6.088c-.618 0-1.121.505-1.121 1.13v12.15c0 .624.503 1.129 1.121 1.129h6.088zM75.12 68.037h3.84v-9.891h-3.84v9.89zm-1.122 2.259h6.085c.62 0 1.123-.505 1.123-1.129v-12.15c0-.625-.502-1.13-1.123-1.13h-6.085c-.62 0-1.124.505-1.124 1.13v12.15c0 .624.504 1.129 1.124 1.129zM59.542 50.543h3.842v-9.892h-3.842v9.892zm-1.123 2.26h6.086c.62 0 1.123-.507 1.123-1.13V39.52c0-.624-.503-1.13-1.123-1.13h-6.086c-.62 0-1.123.506-1.123 1.13v12.151c0 .624.504 1.13 1.123 1.13zM48.766 23.414c0 .625.502 1.13 1.123 1.13.62 0 1.122-.505 1.122-1.13V21.08h2.32c.619 0 1.121-.506 1.121-1.13 0-.624-.502-1.13-1.12-1.13H51.01v-2.334c0-.625-.503-1.13-1.122-1.13-.62 0-1.123.505-1.123 1.13v2.334h-2.32c-.619 0-1.122.506-1.122 1.13 0 .624.503 1.13 1.123 1.13h2.319v2.334z"/>
        <path fill="#FFF" d="M84.335 81.946H69.748V44.24h14.586v37.707h.001zm-70.514 4.272h72.134v-2.012H13.821v2.012zm37.19-4.272h7.782V65.204h-7.782v16.742zm-10.027 0h7.782V65.204h-7.782v16.742zm-8.708-49.33h35.226v49.33h-6.464V64.074c0-.624-.502-1.13-1.123-1.13H39.862c-.62 0-1.124.506-1.124 1.13v17.872h-6.462v-49.33zM13.82 41.98h16.21v-1.808H13.82v1.808zm15.608-13.43h17.444c.62 0 1.123-.506 1.123-1.129 0-.625-.502-1.13-1.123-1.13h-6.308V13.612h18.647v12.679H53.23c-.62 0-1.122.505-1.122 1.13 0 .623.503 1.13 1.122 1.13h17.117v1.806H29.43v-1.806zm57.65 15.69c.619 0 1.122-.508 1.122-1.131v-4.067c0-.623-.503-1.13-1.122-1.13h-6.81c-.619 0-1.122.507-1.122 1.13 0 .623.503 1.13 1.122 1.13h5.686v1.808H69.748v-1.808h4.932c.622 0 1.123-.507 1.123-1.13 0-.623-.501-1.13-1.123-1.13h-4.932v-5.296h1.721c.62 0 1.123-.505 1.123-1.13V27.42c0-.623-.503-1.13-1.123-1.13H61.457V12.484c0-.625-.502-1.13-1.122-1.13H39.442c-.62 0-1.122.505-1.122 1.13V26.29H28.307c-.62 0-1.123.505-1.123 1.13v4.065c0 .625.503 1.13 1.123 1.13h1.722v5.296H12.7c-.62 0-1.123.507-1.123 1.13v4.067c0 .623.503 1.13 1.122 1.13h.499v7.434c0 .622.502 1.13 1.122 1.13.62 0 1.123-.508 1.123-1.13v-7.434h14.587v37.707H15.442V57.282c0-.626-.504-1.13-1.123-1.13-.62 0-1.122.504-1.122 1.13v24.664h-.499c-.619 0-1.122.505-1.122 1.13v4.27c0 .624.503 1.13 1.122 1.13h74.38c.62 0 1.123-.506 1.123-1.13v-4.27c0-.625-.503-1.13-1.122-1.13h-.499V44.24h.499z"/>
        <path d="M0 0h99.204v99.85H0z"/>
    </g>
</svg>
