<svg xmlns="http://www.w3.org/2000/svg" width="36" height="36" viewBox="0 0 36 36">
    <path fill="#7DCCF3" fill-rule="evenodd" d="M25.584 14.107c.008.168.013.34.013.51 0 5.168-3.935 11.128-11.135 11.128-2.208 0-4.265-.646-5.997-1.756a7.845 7.845 0 0 0 5.792-1.622 3.908 3.908 0 0 1-3.654-2.716 3.933 3.933 0 0 0 1.768-.066 3.912 3.912 0 0 1-3.138-3.836v-.051a3.792 3.792 0 0 0 1.77.488 3.915 3.915 0 0 1-1.212-5.221 11.128 11.128 0 0 0 8.066 4.092 3.917 3.917 0 0 1 3.813-4.809c1.124 0 2.14.476 2.853 1.239a7.808 7.808 0 0 0 2.487-.952 3.932 3.932 0 0 1-1.722 2.166 7.734 7.734 0 0 0 2.247-.617 7.96 7.96 0 0 1-1.95 2.023M18 1C8.628 1 1 8.626 1 18c0 9.372 7.628 17 17 17s17-7.628 17-17c0-9.374-7.626-17-17-17"/>
</svg>
