<svg xmlns="http://www.w3.org/2000/svg" width="36" height="36" viewBox="0 0 36 36">
    <path fill="#7DCCF3" fill-rule="evenodd" d="M29.13 25.76a24.427 24.427 0 0 0-5.333-1.96c.381-1.467.644-3.055.726-4.742h7.011a13.393 13.393 0 0 1-2.404 6.702zm-8.602 5.578a27.632 27.632 0 0 0 2.681-5.566 22.543 22.543 0 0 1 4.588 1.622 13.452 13.452 0 0 1-7.269 3.944zM8.203 27.394a22.839 22.839 0 0 1 4.228-1.52 24.077 24.077 0 0 0 2.565 5.367 13.441 13.441 0 0 1-6.793-3.847zm-3.735-8.336h6.72c.073 1.753.318 3.37.677 4.84a25 25 0 0 0-4.99 1.864 13.388 13.388 0 0 1-2.407-6.704zM14.986 4.774a24.207 24.207 0 0 0-2.608 5.52A22.326 22.326 0 0 1 8.11 8.726a13.565 13.565 0 0 1 6.875-3.953zM27.89 8.727a22.494 22.494 0 0 1-4.629 1.656 27.537 27.537 0 0 0-2.73-5.716 13.55 13.55 0 0 1 7.36 4.06zm-9.998-4.296a26.072 26.072 0 0 1 3.317 6.338 22.821 22.821 0 0 1-6.79-.053c1.015-2.972 2.43-5.121 3.325-6.277.05-.003.097-.008.148-.008zm-4.658 12.572a22.4 22.4 0 0 1 .61-4.303c1.291.223 2.68.352 4.157.352 1.35 0 2.62-.11 3.815-.296.343 1.318.586 2.742.66 4.247h-9.242zm-8.755 0c.177-2.45.998-4.72 2.307-6.64a24.522 24.522 0 0 0 5.042 1.905 24.735 24.735 0 0 0-.64 4.735h-6.71zm13.524 6.11c-1.471 0-2.843.14-4.123.36a22.416 22.416 0 0 1-.644-4.418h9.24c-.082 1.542-.342 3-.701 4.347a25.055 25.055 0 0 0-3.772-.289zm-.116 8.46c-.049 0-.097-.004-.143-.004-.88-1.137-2.264-3.225-3.274-6.12a22.504 22.504 0 0 1 3.533-.282c1.105 0 2.155.083 3.143.221a26.203 26.203 0 0 1-3.26 6.186zm6.637-14.57a23.123 23.123 0 0 0-.687-4.648 24.555 24.555 0 0 0 5.382-1.991 13.475 13.475 0 0 1 2.31 6.64h-7.005zM18.003 1C8.627 1 1 8.625 1 17.999c0 3.844 1.253 7.47 3.621 10.486A16.905 16.905 0 0 0 18.002 35c5.256 0 10.132-2.375 13.382-6.518A16.827 16.827 0 0 0 35 18C35 8.625 27.374 1 18.002 1z"/>
</svg>
