<svg xmlns="http://www.w3.org/2000/svg" width="36" height="36" viewBox="0 0 36 36">
    <path fill="#7DCCF3" fill-rule="evenodd" d="M34.94 17.897c0 9.331-7.598 16.896-16.97 16.896S1 27.228 1 17.897C1 8.565 8.598 1 17.97 1s16.97 7.565 16.97 16.897zm-6.235-5.688V10h-7.939l-2.528 8.834h-.068L15.665 10H8v2.209h.82c.322 0 .659.32.659.596v9.947c0 .275-.337.5-.66.5H8v2.208h5.915v-2.208h-1.479V12.945h.267l3.513 12.515h2.756l3.561-12.515h.257v10.307h-1.478v2.208h7.393v-2.208h-1.141c-.299 0-1.077-.225-1.077-.5v-9.947c0-.275.778-.596 1.077-.596h1.141z"/>
</svg>
