<svg xmlns="http://www.w3.org/2000/svg" width="36" height="36" viewBox="0 0 36 36">
    <path fill="#7DCCF3" fill-rule="evenodd" d="M34.94 17.897c0 9.331-7.598 16.896-16.97 16.896S1 27.228 1 17.897C1 8.565 8.598 1 17.97 1s16.97 7.565 16.97 16.897zm-18.497 4.297L13.84 16.4l5.82-2.593 2.601 5.798-5.818 2.59zm13.48-3.698a2.117 2.117 0 0 0-2.791-1.062l-1.016.454-2.604-5.796 1.016-.451a2.096 2.096 0 0 0 1.064-2.776 2.115 2.115 0 0 0-2.787-1.062l-1.016.454-.454-1.011a2.113 2.113 0 0 0-2.787-1.063 2.1 2.1 0 0 0-1.067 2.779l.456 1.011-5.821 2.593-.453-1.012a2.114 2.114 0 0 0-2.788-1.064 2.104 2.104 0 0 0-1.067 2.778l.456 1.011-1.016.452a2.102 2.102 0 0 0-1.064 2.778 2.118 2.118 0 0 0 2.788 1.06l1.016-.454 2.6 5.795-1.015.452a2.102 2.102 0 0 0-1.064 2.778 2.115 2.115 0 0 0 2.788 1.06l1.015-.452.456 1.012a2.114 2.114 0 0 0 2.788 1.06 2.096 2.096 0 0 0 1.062-2.777l-.451-1.01 5.818-2.59.456 1.006a2.114 2.114 0 0 0 2.788 1.064 2.098 2.098 0 0 0 1.066-2.776l-.455-1.011 1.013-.456a2.093 2.093 0 0 0 1.07-2.774z"/>
</svg>
