<svg xmlns="http://www.w3.org/2000/svg" xmlns:xlink="http://www.w3.org/1999/xlink" width="60" height="16" viewBox="0 0 60 16">
    <defs>
        <path id="a" d="M8.328 1.387a4.33 4.33 0 0 0-2.045 3.511c-.001 0-.004 0-.004-.002-.01.542.074 1.119.188 1.49.378 1.242.337 2.269-.12 3.05-.154.265-.342.47-.53.632a1.781 1.781 0 0 1-.37.312 1.793 1.793 0 0 1-2.474-.588 1.816 1.816 0 0 1 .587-2.486c.292-.18.61-.261.927-.262l-.003-.008h1.15c.469-.085.39-.535.39-.535-.133-.446-.225-1.146-.194-1.776a4.269 4.269 0 0 0-3.586.433 4.34 4.34 0 0 0-1.406 5.957 4.295 4.295 0 0 0 5.428 1.676c1.22-.58 2.103-1.755 2.396-3.09V9.68h.006c.124-.574.141-1.174.026-1.772H8.7c-.03-.157-.062-.3-.098-.421-.4-1.306-.37-2.358.087-3.125.5-.838 1.326-1.007 1.36-1.016l.002.01a1.787 1.787 0 0 1 2.066.77 1.81 1.81 0 0 1-.588 2.486 1.777 1.777 0 0 1-.916.262v.007h-1.14c-.454.029-.46.319-.446.433l.01.039c.143.467.239 1.205.189 1.863.02.133.111.428.55.45v.014h.67v.002c.142-.002.284.013.429.046a1.806 1.806 0 0 1 1.333 2.176 1.797 1.797 0 0 1-2.163 1.34 1.805 1.805 0 0 1-1.38-1.703h-.004v-.51a4.861 4.861 0 0 1-2.155 2.148 4.3 4.3 0 0 0 2.958 2.522 4.311 4.311 0 0 0 5.188-3.216 4.346 4.346 0 0 0-1.24-4.148 4.343 4.343 0 0 0 .843-5.535A4.304 4.304 0 0 0 10.583.743c-.771 0-1.551.208-2.255.644"/>
    </defs>
    <g fill="none" fill-rule="evenodd">
        <g fill="#7DCCF3">
            <path d="M24.071 9.78c-.434-.327-1.071-.498-1.922-.498h-2.437v3.164c0 .156.078.234.249.234h2.468c.62 0 1.133-.125 1.535-.374.513-.313.773-.733.773-1.263 0-.468-.231-.888-.666-1.263m-.186-4.427c-.215-.17-.524-.266-.916-.266h-3.008c-.17 0-.249.096-.249.25v2.822h2.437c.59 0 1.102-.124 1.52-.405.466-.312.713-.765.713-1.34a1.31 1.31 0 0 0-.497-1.061m.977 7.67c-.666.515-1.627.763-2.869.763h-2.745c-.436 0-.65-.218-.65-.653V4.635c0-.435.214-.654.65-.654h3.429c.808 0 1.458.204 1.953.578.558.467.853 1.09.853 1.855 0 1.121-.528 1.885-1.551 2.29.59.155 1.006.404 1.288.735.401.497.62 1.043.62 1.636 0 .794-.325 1.45-.978 1.948M28.278 5.953a.733.733 0 0 1-.543.22.738.738 0 0 1-.557-.22.757.757 0 0 1-.234-.56c0-.219.077-.407.234-.561.153-.14.34-.22.557-.22.202 0 .387.08.543.22a.77.77 0 0 1 .232.561.77.77 0 0 1-.232.56M27.735 13.811c-.374 0-.558-.218-.558-.67V7.567c0-.437.184-.654.558-.654.357 0 .542.217.542.654v5.576c0 .451-.185.67-.542.67M31.111 5.953a.736.736 0 0 1-.54.22.769.769 0 0 1-.792-.78.77.77 0 0 1 .23-.561.817.817 0 0 1 .561-.22c.2 0 .385.08.541.22a.757.757 0 0 1 .233.561.756.756 0 0 1-.233.56M30.57 13.811c-.374 0-.561-.218-.561-.67V7.567c0-.437.187-.654.56-.654.356 0 .542.217.542.654v5.576c0 .451-.186.67-.541.67M37.705 13.8H34.12c-.462 0-.68-.219-.68-.654V4.632c0-.42.169-.638.54-.638.376 0 .562.219.562.638v7.827c0 .155.077.234.231.234h2.933c.435 0 .653.186.653.561 0 .373-.218.545-.653.545M44.087 10.4h-.945c-1.923 0-2.886.47-2.886 1.373 0 .28.109.483.325.64.216.155.466.233.763.233.495 0 1.005-.14 1.548-.422.529-.263.93-.608 1.195-1.011V10.4zm.544 3.4c-.374 0-.544-.218-.544-.655v-.561a4.73 4.73 0 0 1-1.304.827c-.51.232-.992.342-1.439.342-.622 0-1.134-.142-1.539-.453-.479-.342-.713-.857-.713-1.527 0-.842.392-1.48 1.194-1.934.638-.342 1.412-.53 2.343-.53h1.458c-.064-1.028-.651-1.544-1.767-1.544-.387 0-.76.08-1.118.22-.405.156-.7.373-.884.655-.124.2-.25.297-.358.297-.418 0-.62-.204-.62-.64 0-.156.096-.342.31-.577.636-.702 1.523-1.06 2.67-1.06 1.021 0 1.754.28 2.216.81.42.529.635 1.122.635 1.793v3.882c0 .437-.184.655-.54.655zM51.15 8.529c-.406-.468-.902-.7-1.521-.7-.698 0-1.24.216-1.644.654-.405.436-.603 1.013-.603 1.714 0 .686.198 1.28.62 1.762.402.5.947.734 1.627.734.635 0 1.163-.25 1.567-.764.372-.468.556-1.046.556-1.732 0-.638-.202-1.2-.603-1.668m.853 4.164c-.65.748-1.445 1.106-2.373 1.106-1.056 0-1.814-.39-2.247-1.186v.53c0 .437-.188.656-.56.656-.375 0-.542-.22-.542-.656V4.566c0-.42.167-.638.542-.638.372 0 .56.218.56.638v3.279c.557-.75 1.299-1.139 2.247-1.139a3.13 3.13 0 0 1 2.357 1.014c.622.683.947 1.512.947 2.477 0 .968-.312 1.794-.931 2.496M58.505 13.377c-.545.281-1.21.423-1.988.423-.822 0-1.533-.205-2.122-.643-.592-.42-.886-.825-.886-1.213 0-.408.218-.608.65-.608.125 0 .252.092.372.279.438.717 1.088 1.076 1.943 1.076 1.207 0 1.827-.281 1.827-.841 0-.282-.277-.562-.822-.811a27.076 27.076 0 0 0-1.255-.405c-.776-.22-1.333-.438-1.646-.623-.62-.346-.912-.796-.912-1.357 0-.638.265-1.139.82-1.482.483-.31 1.133-.467 1.972-.467.557 0 1.117.157 1.706.437.682.344 1.038.763 1.038 1.262 0 .405-.217.609-.62.609-.142 0-.296-.156-.466-.47-.311-.527-.839-.794-1.6-.794-1.114 0-1.67.311-1.67.905 0 .203.151.374.494.513.126.065.529.188 1.224.39.886.28 1.508.515 1.876.734.685.42 1.04.935 1.04 1.559 0 .67-.325 1.183-.975 1.527"/>
        </g>
        <mask id="b" fill="#fff">
            <use xlink:href="#a"/>
        </mask>
        <path fill="#7DCCF3" d="M8.328 1.387a4.33 4.33 0 0 0-2.045 3.511c-.001 0-.004 0-.004-.002-.01.542.074 1.119.188 1.49.378 1.242.337 2.269-.12 3.05-.154.265-.342.47-.53.632a1.781 1.781 0 0 1-.37.312 1.793 1.793 0 0 1-2.474-.588 1.816 1.816 0 0 1 .587-2.486c.292-.18.61-.261.927-.262l-.003-.008h1.15c.469-.085.39-.535.39-.535-.133-.446-.225-1.146-.194-1.776a4.269 4.269 0 0 0-3.586.433 4.34 4.34 0 0 0-1.406 5.957 4.295 4.295 0 0 0 5.428 1.676c1.22-.58 2.103-1.755 2.396-3.09V9.68h.006c.124-.574.141-1.174.026-1.772H8.7c-.03-.157-.062-.3-.098-.421-.4-1.306-.37-2.358.087-3.125.5-.838 1.326-1.007 1.36-1.016l.002.01a1.787 1.787 0 0 1 2.066.77 1.81 1.81 0 0 1-.588 2.486 1.777 1.777 0 0 1-.916.262v.007h-1.14c-.454.029-.46.319-.446.433l.01.039c.143.467.239 1.205.189 1.863.02.133.111.428.55.45v.014h.67v.002c.142-.002.284.013.429.046a1.806 1.806 0 0 1 1.333 2.176 1.797 1.797 0 0 1-2.163 1.34 1.805 1.805 0 0 1-1.38-1.703h-.004v-.51a4.861 4.861 0 0 1-2.155 2.148 4.3 4.3 0 0 0 2.958 2.522 4.311 4.311 0 0 0 5.188-3.216 4.346 4.346 0 0 0-1.24-4.148 4.343 4.343 0 0 0 .843-5.535A4.304 4.304 0 0 0 10.583.743c-.771 0-1.551.208-2.255.644" mask="url(#b)"/>
    </g>
</svg>
